<svg xmlns:xlink="http://www.w3.org/1999/xlink" width="118" height="46" viewBox="0 0 118 46" fill="none" xmlns="http://www.w3.org/2000/svg" data-v-4f00eb24=""><g clip-path="url(#clip0_1_46)" fill="none"><path d="M0.5 9.97368C0.5 4.74151 4.74151 0.5 9.97368 0.5H36.0263C41.2585 0.5 45.5 4.74151 45.5 9.97368V36.0263C45.5 41.2585 41.2585 45.5 36.0263 45.5H9.97368C4.74151 45.5 0.5 41.2585 0.5 36.0263V9.97368Z" fill="#EFF1FF"></path> <path d="M29.8854 30.9228L28.7679 25.7712L34.1054 20.4338C36.874 17.6651 38.0453 13.6607 37.2823 9.6818L37.214 9.32811L36.8603 9.25983C32.8714 8.48672 28.8675 9.6776 26.1084 12.4367L20.7709 17.7742L15.6193 16.6567C14.7639 16.4673 13.8911 16.7172 13.2918 17.3166L6.02287 24.5855C5.88016 24.7282 5.96532 24.9846 6.17204 25.0391L12.6981 26.3895C12.7965 26.4117 12.8932 26.3752 12.9598 26.3086L15.738 23.5305C15.7951 23.4734 15.8728 23.456 15.9611 23.4681L21.7105 24.6508C21.8089 24.673 21.8892 24.7534 21.9115 24.8517L23.0941 30.6011C23.1158 30.6799 23.0888 30.7671 23.0317 30.8242L20.2536 33.6024C20.187 33.669 20.1606 33.7758 20.1727 33.8641L21.5231 40.3902C21.5681 40.6064 21.8245 40.6916 21.9767 40.5393L29.2456 33.2705C29.8249 32.651 30.0653 31.7877 29.8854 30.9228ZM27.528 18.994C26.3927 17.8588 26.3443 16.0788 27.4194 15.0037C28.4945 13.9285 30.2745 13.977 31.4098 15.1122C32.545 16.2475 32.5935 18.0275 31.5184 19.1026C30.4433 20.1777 28.6632 20.1293 27.528 18.994Z" fill="#5F77FF"></path> <path d="M96.6975 21.6114C94.9946 21.6114 94.1563 20.6568 94.1563 18.7199V12.9231H98.9375V8.89708L94.1563 8.88325V3.875H89.375V18.7614C89.375 20.9473 89.9121 22.5799 90.9731 23.6451C92.0342 24.7104 93.8157 25.25 96.1342 25.25C96.7368 25.25 98.1515 25.167 98.9244 24.9871L98.8851 21.5146C98.3742 21.5837 97.1691 21.6114 96.6975 21.6114Z" fill="#292940"></path> <path d="M112.908 8.96509L108.945 19.1612L105.099 8.96509L100.625 8.9375L102.64 14.7875L106.499 24.1006L103.581 30.875H108.33L117.5 8.96509H112.908Z" fill="#292940"></path> <path d="M53.9375 25.25H59.0339V14.7919H69.1848V10.5857H59.0339V6.37937H69.6875V2.1875H53.9375V25.25Z" fill="#292940"></path> <path d="M82.2634 8.9375V17.8315C82.2634 18.8932 81.9687 19.7619 81.3929 20.41C80.8036 21.0581 80.1473 21.3891 79.2098 21.3891C78.4062 21.3891 77.8036 21.1546 77.4152 20.6996C77.0268 20.2446 76.8259 19.5413 76.8259 18.5761V8.9375H71.9375V18.4796C71.9375 20.741 72.4196 22.437 73.3839 23.5677C74.3482 24.6846 75.808 25.25 77.7768 25.25C78.7679 25.25 79.6652 25.0294 80.4554 24.6019C81.192 24.202 81.7946 23.6229 82.2634 22.8783V24.988H87.125V8.9375H82.2634Z" fill="#292940"></path> <path d="M56.5098 37.8344C56.9514 37.8344 57.3433 37.9495 57.6854 38.1797C58.0337 38.4098 58.3043 38.7363 58.4971 39.1593C58.6899 39.5823 58.7863 40.0705 58.7863 40.6241C58.7863 41.1777 58.6899 41.666 58.4971 42.0889C58.3043 42.5057 58.0337 42.8291 57.6854 43.0592C57.3433 43.2894 56.9514 43.4045 56.5098 43.4045C56.1366 43.4045 55.7976 43.3049 55.4928 43.1059C55.1943 42.9006 54.9672 42.6176 54.8117 42.2569L54.7184 43.2925H54V36.3137H54.8397V38.9167C55.0014 38.5746 55.2285 38.3103 55.5208 38.1237C55.8194 37.9309 56.149 37.8344 56.5098 37.8344ZM56.3698 42.6487C56.6808 42.6487 56.9545 42.5679 57.1909 42.4061C57.4272 42.2382 57.6107 42.0018 57.7414 41.6971C57.8782 41.3923 57.9466 41.0346 57.9466 40.6241C57.9466 40.2136 57.8782 39.8559 57.7414 39.5512C57.6107 39.2464 57.4272 39.0131 57.1909 38.8514C56.9545 38.6835 56.6808 38.5995 56.3698 38.5995C56.0713 38.5995 55.8038 38.6835 55.5675 38.8514C55.3373 39.0131 55.1569 39.2464 55.0263 39.5512C54.9019 39.8559 54.8397 40.2136 54.8397 40.6241C54.8397 41.0284 54.9019 41.383 55.0263 41.6877C55.1569 41.9925 55.3373 42.2289 55.5675 42.3968C55.8038 42.5648 56.0713 42.6487 56.3698 42.6487ZM63.2545 37.9464H64.1409L61.4072 44.9532H60.5115L61.2486 43.0779L59.2426 37.9464H60.1383L61.6964 41.9303L63.2545 37.9464ZM69.0518 41.7062H72.9106V43.2925H67.2631V34.8775H69.0518V41.7062ZM79.4051 41.3012C79.2776 41.9612 78.9438 42.4825 78.4038 42.865C77.8638 43.24 77.2226 43.4275 76.4801 43.4275C75.8426 43.4275 75.2763 43.2775 74.7813 42.9775C74.2938 42.6775 73.9151 42.2687 73.6451 41.7512C73.3751 41.2262 73.2401 40.6525 73.2401 40.03C73.2401 39.4075 73.3676 38.8375 73.6226 38.32C73.8851 37.8025 74.2488 37.3937 74.7138 37.0938C75.1863 36.7937 75.7301 36.6437 76.3451 36.6437C76.9301 36.6437 77.4476 36.7712 77.8976 37.0262C78.3551 37.2812 78.7113 37.6375 78.9663 38.095C79.2213 38.545 79.3488 39.0625 79.3488 39.6475C79.3488 39.835 79.3301 40.0525 79.2926 40.3H74.9051C74.9426 40.765 75.1001 41.1512 75.3776 41.4587C75.6626 41.7587 76.0301 41.9087 76.4801 41.9087C76.8101 41.9087 77.0913 41.83 77.3238 41.6725C77.5563 41.5075 77.7138 41.2825 77.7963 40.9975L79.4051 41.3012ZM76.3788 38.0387C76.0338 38.0387 75.7338 38.14 75.4788 38.3425C75.2313 38.545 75.0588 38.8262 74.9613 39.1862H77.6613C77.6388 38.8412 77.5076 38.5637 77.2676 38.3537C77.0351 38.1437 76.7388 38.0387 76.3788 38.0387ZM82.8738 36.6437C83.4588 36.6437 83.9725 36.7562 84.415 36.9812C84.865 37.1987 85.2138 37.5062 85.4613 37.9037C85.7088 38.3012 85.8325 38.755 85.8325 39.265V43.2925H84.3025L84.2013 42.4825C84.0213 42.775 83.7738 43.0075 83.4588 43.18C83.1513 43.345 82.81 43.4275 82.435 43.4275C81.85 43.4275 81.3625 43.255 80.9725 42.91C80.59 42.5575 80.3988 42.0812 80.3988 41.4812C80.3988 40.7837 80.6463 40.2512 81.1413 39.8837C81.6363 39.5087 82.3113 39.3212 83.1663 39.3212H84.1V39.265C84.1 38.905 83.9875 38.62 83.7625 38.41C83.545 38.2 83.2488 38.095 82.8738 38.095C82.5738 38.095 82.3 38.1812 82.0525 38.3537C81.8125 38.5262 81.6513 38.755 81.5688 39.04L79.9375 38.8487C80.0125 38.3987 80.1963 38.0087 80.4888 37.6787C80.7813 37.3412 81.1375 37.0862 81.5575 36.9137C81.9775 36.7337 82.4163 36.6437 82.8738 36.6437ZM82.9638 41.9875C83.2863 41.9875 83.5563 41.8562 83.7738 41.5937C83.9913 41.3237 84.1 41.0162 84.1 40.6712V40.435H83.2675C82.9 40.435 82.615 40.5062 82.4125 40.6487C82.2175 40.7912 82.12 40.9975 82.12 41.2675C82.12 41.4775 82.1988 41.65 82.3563 41.785C82.5138 41.92 82.7163 41.9875 82.9638 41.9875ZM93.0634 34.8775V43.2925H91.5334L91.4322 42.4375C91.2297 42.7525 90.9709 42.9962 90.6559 43.1687C90.3409 43.3412 89.9997 43.4275 89.6322 43.4275C89.0847 43.4275 88.5972 43.2887 88.1697 43.0112C87.7422 42.7262 87.4047 42.3287 87.1572 41.8187C86.9172 41.3012 86.7972 40.705 86.7972 40.03C86.7972 39.355 86.9172 38.7625 87.1572 38.2525C87.3972 37.7425 87.7309 37.3487 88.1584 37.0712C88.5934 36.7862 89.0847 36.6437 89.6322 36.6437C89.9697 36.6437 90.2847 36.7187 90.5772 36.8687C90.8772 37.0112 91.1284 37.2175 91.3309 37.4875V34.8775H93.0634ZM89.9584 41.8637C90.3784 41.8637 90.7122 41.6987 90.9597 41.3687C91.2072 41.0387 91.3309 40.5925 91.3309 40.03C91.3309 39.475 91.2072 39.0325 90.9597 38.7025C90.7122 38.3725 90.3784 38.2075 89.9584 38.2075C89.5309 38.2075 89.1859 38.3725 88.9234 38.7025C88.6684 39.025 88.5409 39.4675 88.5409 40.03C88.5409 40.5925 88.6684 41.0387 88.9234 41.3687C89.1859 41.6987 89.5309 41.8637 89.9584 41.8637ZM95.2956 36.0812C94.9881 36.0812 94.7293 35.9837 94.5193 35.7887C94.3168 35.5862 94.2156 35.335 94.2156 35.035C94.2156 34.735 94.3168 34.4875 94.5193 34.2925C94.7293 34.0975 94.9881 34 95.2956 34C95.6181 34 95.8806 34.0975 96.0831 34.2925C96.2856 34.4875 96.3868 34.735 96.3868 35.035C96.3868 35.3425 96.2856 35.5937 96.0831 35.7887C95.8806 35.9837 95.6181 36.0812 95.2956 36.0812ZM96.1731 43.2925H94.4406V36.7787H96.1731V43.2925ZM101.004 36.6437C101.461 36.6437 101.866 36.7412 102.218 36.9363C102.578 37.1312 102.856 37.4125 103.051 37.78C103.253 38.14 103.354 38.56 103.354 39.04V43.2925H101.622V39.4112C101.622 39.0437 101.517 38.7512 101.307 38.5337C101.097 38.3162 100.824 38.2075 100.486 38.2075C100.119 38.2075 99.826 38.3387 99.6085 38.6012C99.391 38.8562 99.2822 39.1825 99.2822 39.58V43.2925H97.5497V36.7787H99.0797L99.1922 37.7575C99.3722 37.405 99.6197 37.1312 99.9347 36.9363C100.25 36.7412 100.606 36.6437 101.004 36.6437ZM106.851 36.7787H108.246V38.2862H106.851V43.2925H105.119V38.2862H104.061V36.7787H105.119V36.0475C105.119 35.5225 105.276 35.1025 105.591 34.7875C105.914 34.465 106.338 34.3037 106.863 34.3037H108.325L108.516 35.7662H107.324C107.181 35.7662 107.065 35.8112 106.975 35.9012C106.893 35.9912 106.851 36.1075 106.851 36.25V36.7787ZM111.809 43.4275C111.179 43.4275 110.628 43.2925 110.156 43.0225C109.683 42.745 109.316 42.3512 109.053 41.8412C108.798 41.3237 108.671 40.72 108.671 40.03C108.671 39.3475 108.798 38.7512 109.053 38.2412C109.316 37.7312 109.683 37.3375 110.156 37.06C110.636 36.7825 111.187 36.6437 111.809 36.6437C112.447 36.6437 113.002 36.7825 113.474 37.06C113.947 37.33 114.311 37.72 114.566 38.23C114.828 38.74 114.959 39.34 114.959 40.03C114.959 40.72 114.828 41.3237 114.566 41.8412C114.311 42.3512 113.947 42.745 113.474 43.0225C113.002 43.2925 112.447 43.4275 111.809 43.4275ZM111.809 41.8637C112.237 41.8637 112.578 41.7025 112.833 41.38C113.088 41.05 113.216 40.6 113.216 40.03C113.216 39.4675 113.088 39.025 112.833 38.7025C112.578 38.3725 112.237 38.2075 111.809 38.2075C111.389 38.2075 111.052 38.3725 110.797 38.7025C110.542 39.025 110.414 39.4675 110.414 40.03C110.414 40.6 110.542 41.05 110.797 41.38C111.052 41.7025 111.389 41.8637 111.809 41.8637Z" fill="#676781"></path></g> <defs><clipPath id="clip0_1_46"><rect width="117" height="45" fill="white" transform="translate(0.5 0.5)"></rect></clipPath></defs></svg>