<svg xmlns:xlink="http://www.w3.org/1999/xlink" data-v-6cd146c9="" width="14" height="14" viewBox="0 0 16 16" fill="none" xmlns="http://www.w3.org/2000/svg"><path opacity="0.2" d="M8 0.25C3.71875 0.25 0.25 3.72125 0.25 8C0.25 12.2787 3.71875 15.75 8 15.75C12.2812 15.75 15.75 12.2812 15.75 8C15.75 3.71875 12.2812 0.25 8 0.25ZM8 3.6875C8.25959 3.6875 8.51335 3.76448 8.72919 3.9087C8.94503 4.05292 9.11325 4.2579 9.21259 4.49773C9.31193 4.73756 9.33792 5.00146 9.28728 5.25606C9.23664 5.51066 9.11163 5.74452 8.92808 5.92808C8.74452 6.11163 8.51066 6.23664 8.25606 6.28728C8.00146 6.33792 7.73756 6.31193 7.49773 6.21259C7.2579 6.11325 7.05292 5.94503 6.9087 5.72919C6.76448 5.51335 6.6875 5.25959 6.6875 5C6.6875 4.6519 6.82578 4.31806 7.07192 4.07192C7.31806 3.82578 7.6519 3.6875 8 3.6875V3.6875ZM9.75 11.625C9.75 11.7245 9.71049 11.8198 9.64017 11.8902C9.56984 11.9605 9.47446 12 9.375 12H6.625C6.52554 12 6.43016 11.9605 6.35984 11.8902C6.28951 11.8198 6.25 11.7245 6.25 11.625V10.875C6.25 10.7755 6.28951 10.6802 6.35984 10.6098C6.43016 10.5395 6.52554 10.5 6.625 10.5H7V8.5H6.625C6.52554 8.5 6.43016 8.46049 6.35984 8.39017C6.28951 8.31984 6.25 8.22446 6.25 8.125V7.375C6.25 7.27554 6.28951 7.18016 6.35984 7.10984C6.43016 7.03951 6.52554 7 6.625 7H8.625C8.72446 7 8.81984 7.03951 8.89017 7.10984C8.96049 7.18016 9 7.27554 9 7.375V10.5H9.375C9.47446 10.5 9.56984 10.5395 9.64017 10.6098C9.71049 10.6802 9.75 10.7755 9.75 10.875V11.625Z" fill="#7A7B9A"></path> <path d="M8 6.3125C8.25959 6.3125 8.51335 6.23552 8.72919 6.0913C8.94503 5.94709 9.11325 5.7421 9.21259 5.50227C9.31193 5.26244 9.33792 4.99854 9.28728 4.74394C9.23664 4.48934 9.11163 4.25548 8.92808 4.07192C8.74452 3.88837 8.51066 3.76336 8.25606 3.71272C8.00146 3.66208 7.73756 3.68807 7.49773 3.78741C7.2579 3.88675 7.05292 4.05498 6.9087 4.27081C6.76448 4.48665 6.6875 4.74041 6.6875 5C6.6875 5.3481 6.82578 5.68194 7.07192 5.92808C7.31806 6.17422 7.6519 6.3125 8 6.3125ZM9.375 10.5H9V7.375C9 7.27554 8.96049 7.18016 8.89017 7.10984C8.81984 7.03951 8.72446 7 8.625 7H6.625C6.52554 7 6.43016 7.03951 6.35984 7.10984C6.28951 7.18016 6.25 7.27554 6.25 7.375V8.125C6.25 8.22446 6.28951 8.31984 6.35984 8.39017C6.43016 8.46049 6.52554 8.5 6.625 8.5H7V10.5H6.625C6.52554 10.5 6.43016 10.5395 6.35984 10.6098C6.28951 10.6802 6.25 10.7755 6.25 10.875V11.625C6.25 11.7245 6.28951 11.8198 6.35984 11.8902C6.43016 11.9605 6.52554 12 6.625 12H9.375C9.47446 12 9.56984 11.9605 9.64017 11.8902C9.71049 11.8198 9.75 11.7245 9.75 11.625V10.875C9.75 10.7755 9.71049 10.6802 9.64017 10.6098C9.56984 10.5395 9.47446 10.5 9.375 10.5Z" fill="#7A7B9A"></path></svg>