<svg xmlns:xlink="http://www.w3.org/1999/xlink" data-v-bc29971e="" data-v-21137603="" width="10" height="14" viewBox="0 0 10 14" fill="none" xmlns="http://www.w3.org/2000/svg"><path data-v-bc29971e="" data-v-21137603="" d="M2.24609 7L1.25822 6.01213C0.996224 6.27413 0.849034 6.62948 0.849034 7C0.849034 7.37052 0.996224 7.72587 1.25822 7.98787L2.24609 7ZM8.73396 2.48787C9.27955 1.94229 9.27955 1.05772 8.73396 0.512132C8.18838 -0.033454 7.30381 -0.0334542 6.75823 0.512131L8.73396 2.48787ZM6.75822 13.4879C7.30381 14.0335 8.18838 14.0335 8.73396 13.4879C9.27955 12.9423 9.27955 12.0577 8.73396 11.5121L6.75822 13.4879ZM3.23396 7.98787L8.73396 2.48787L6.75823 0.512131L1.25822 6.01213L3.23396 7.98787ZM1.25822 7.98787L6.75822 13.4879L8.73396 11.5121L3.23396 6.01213L1.25822 7.98787Z" fill="#5F77FF"></path></svg>