<svg xmlns:xlink="http://www.w3.org/1999/xlink" width="21" height="22" viewBox="0 0 21 22" fill="none" xmlns="http://www.w3.org/2000/svg" aria-hidden="true" class="icon close hide" data-v-4f00eb24=""><path opacity="0.4" d="M0.549513 17.2427C0.197735 17.5947 0.00012207 18.0719 0.00012207 18.5695C0.00012207 19.0672 0.197735 19.5444 0.549513 19.8964L1.87633 21.2232C2.22829 21.575 2.70553 21.7726 3.20315 21.7726C3.70076 21.7726 4.17801 21.575 4.52997 21.2232L10.5001 15.2531L6.5196 11.2726L0.549513 17.2427ZM20.4506 2.64891L19.1238 1.3221C18.7718 0.970317 18.2946 0.772705 17.797 0.772705C17.2993 0.772705 16.8221 0.970317 16.4701 1.3221L10.5001 7.29218L14.4805 11.2726L20.4506 5.30255C20.8024 4.95059 21 4.47335 21 3.97573C21 3.47812 20.8024 3.00087 20.4506 2.64891Z" fill="#292940"></path> <path d="M20.4506 17.2427C20.8024 17.5947 21 18.0719 21 18.5695C21 19.0672 20.8024 19.5444 20.4506 19.8964L19.1238 21.2232C18.7718 21.575 18.2946 21.7726 17.797 21.7726C17.2993 21.7726 16.8221 21.575 16.4701 21.2232L0.549513 5.30255C0.197735 4.95059 0.00012207 4.47335 0.00012207 3.97573C0.00012207 3.47812 0.197735 3.00087 0.549513 2.64891L1.87633 1.3221C2.22829 0.970317 2.70553 0.772705 3.20315 0.772705C3.70076 0.772705 4.17801 0.970317 4.52997 1.3221L20.4506 17.2427Z" fill="#292940"></path></svg>