<svg xmlns:xlink="http://www.w3.org/1999/xlink" width="24" height="22" viewBox="0 0 24 22" fill="none" xmlns="http://www.w3.org/2000/svg" aria-hidden="true" class="icon bars" data-v-4f00eb24=""><path opacity="0.4" d="M24 9.5V12.5C24 12.6989 23.921 12.8897 23.7803 13.0303C23.6397 13.171 23.4489 13.25 23.25 13.25H3.75C3.55109 13.25 3.36032 13.171 3.21967 13.0303C3.07902 12.8897 3 12.6989 3 12.5V9.5C3 9.30109 3.07902 9.11032 3.21967 8.96967C3.36032 8.82902 3.55109 8.75 3.75 8.75H23.25C23.4489 8.75 23.6397 8.82902 23.7803 8.96967C23.921 9.11032 24 9.30109 24 9.5Z" fill="#292940"></path> <path d="M20.25 0.5H0.75C0.551088 0.5 0.360322 0.579018 0.21967 0.71967C0.0790176 0.860322 0 1.05109 0 1.25L0 4.25C0 4.44891 0.0790176 4.63968 0.21967 4.78033C0.360322 4.92098 0.551088 5 0.75 5H20.25C20.4489 5 20.6397 4.92098 20.7803 4.78033C20.921 4.63968 21 4.44891 21 4.25V1.25C21 1.05109 20.921 0.860322 20.7803 0.71967C20.6397 0.579018 20.4489 0.5 20.25 0.5V0.5ZM20.25 17H0.75C0.551088 17 0.360322 17.079 0.21967 17.2197C0.0790176 17.3603 0 17.5511 0 17.75L0 20.75C0 20.9489 0.0790176 21.1397 0.21967 21.2803C0.360322 21.421 0.551088 21.5 0.75 21.5H20.25C20.4489 21.5 20.6397 21.421 20.7803 21.2803C20.921 21.1397 21 20.9489 21 20.75V17.75C21 17.5511 20.921 17.3603 20.7803 17.2197C20.6397 17.079 20.4489 17 20.25 17Z" fill="#292940"></path></svg>