<svg xmlns:xlink="http://www.w3.org/1999/xlink" data-v-cd7337d0="" width="22" height="22" viewBox="0 0 36 36" fill="none" xmlns="http://www.w3.org/2000/svg"><path data-v-cd7337d0="" opacity="0.12" d="M18.0046 0.704834C8.37183 0.704834 0.567139 8.50952 0.567139 18.1423C0.567139 27.7751 8.37183 35.5798 18.0046 35.5798C27.6375 35.5798 35.4421 27.7751 35.4421 18.1423C35.4421 8.50952 27.6375 0.704834 18.0046 0.704834ZM28.9249 14.4376L15.9874 27.3751C15.7764 27.5859 15.4904 27.7043 15.1921 27.7043C14.8939 27.7043 14.6079 27.5859 14.3969 27.3751L7.0844 20.0626C6.87359 19.8516 6.75516 19.5656 6.75516 19.2673C6.75516 18.9691 6.87359 18.6831 7.0844 18.4721L8.67487 16.8809C8.77934 16.7764 8.90337 16.6935 9.03988 16.637C9.17639 16.5804 9.3227 16.5513 9.47046 16.5513C9.61822 16.5513 9.76453 16.5804 9.90104 16.637C10.0375 16.6935 10.1616 16.7764 10.266 16.8809L15.1921 21.807L25.7432 11.2559C25.8477 11.1514 25.9717 11.0685 26.1082 11.012C26.2447 10.9554 26.3911 10.9263 26.5388 10.9263C26.6866 10.9263 26.8329 10.9554 26.9694 11.012C27.1059 11.0685 27.2299 11.1514 27.3344 11.2559L28.9249 12.8471C29.1357 13.0581 29.2541 13.3441 29.2541 13.6423C29.2541 13.9406 29.1357 14.2266 28.9249 14.4376V14.4376Z" fill="#5F77FF"></path> <path data-v-cd7337d0="" d="M15.9873 27.375C15.7764 27.5858 15.4903 27.7042 15.1921 27.7042C14.8939 27.7042 14.6078 27.5858 14.3969 27.375L7.08437 20.0625C6.87355 19.8515 6.75513 19.5655 6.75513 19.2673C6.75513 18.969 6.87355 18.683 7.08437 18.472L8.67484 16.8809C8.77931 16.7764 8.90334 16.6935 9.03985 16.6369C9.17636 16.5804 9.32267 16.5513 9.47043 16.5513C9.61819 16.5513 9.7645 16.5804 9.901 16.6369C10.0375 16.6935 10.1615 16.7764 10.266 16.8809L15.1921 21.807L25.7432 11.2559C25.8477 11.1514 25.9717 11.0685 26.1082 11.0119C26.2447 10.9554 26.391 10.9263 26.5388 10.9263C26.6865 10.9263 26.8329 10.9554 26.9694 11.0119C27.1059 11.0685 27.2299 11.1514 27.3344 11.2559L28.9248 12.847C29.1357 13.058 29.2541 13.344 29.2541 13.6423C29.2541 13.9405 29.1357 14.2265 28.9248 14.4375L15.9873 27.375Z" fill="#5F77FF"></path></svg>