<svg xmlns:xlink="http://www.w3.org/1999/xlink" width="10" height="14" viewBox="0 0 10 14" fill="none" xmlns="http://www.w3.org/2000/svg" data-v-11d019f4=""><path d="M7.75391 7L8.74178 7.98787C9.00378 7.72587 9.15097 7.37052 9.15097 7C9.15097 6.62948 9.00378 6.27413 8.74178 6.01213L7.75391 7ZM1.26604 11.5121C0.72045 12.0577 0.72045 12.9423 1.26604 13.4879C1.81162 14.0335 2.69619 14.0335 3.24177 13.4879L1.26604 11.5121ZM3.24178 0.512131C2.69619 -0.0334546 1.81162 -0.0334546 1.26604 0.512131C0.720451 1.05772 0.720451 1.94228 1.26604 2.48787L3.24178 0.512131ZM6.76604 6.01213L1.26604 11.5121L3.24177 13.4879L8.74178 7.98787L6.76604 6.01213ZM8.74178 6.01213L3.24178 0.512131L1.26604 2.48787L6.76604 7.98787L8.74178 6.01213Z" fill="#5F77FF"></path></svg>